<?xml version="1.0" encoding="UTF-8" standalone="no"?>
<svg
   xmlns:dc="http://purl.org/dc/elements/1.1/"
   xmlns:cc="http://creativecommons.org/ns#"
   xmlns:rdf="http://www.w3.org/1999/02/22-rdf-syntax-ns#"
   xmlns:svg="http://www.w3.org/2000/svg"
   xmlns="http://www.w3.org/2000/svg"
   viewBox="0 0 427.37067 385.70132"
   height="385.70132"
   width="427.37067"
   xml:space="preserve"
   id="svg2"
   version="1.1"><metadata
     id="metadata8"><rdf:RDF><cc:Work
         rdf:about=""><dc:format>image/svg+xml</dc:format><dc:type
           rdf:resource="http://purl.org/dc/dcmitype/StillImage" /></cc:Work></rdf:RDF></metadata><defs
     id="defs6"><clipPath
       id="clipPath14"
       clipPathUnits="userSpaceOnUse"><path
         id="path12"
         d="M 0,0 H 419.528 V 595.276 H 0 Z" /></clipPath><clipPath
       id="clipPath22"
       clipPathUnits="userSpaceOnUse"><path
         id="path20"
         d="M 0,0 H 419.528 V 595.276 H 0 Z" /></clipPath></defs><g
     clip-path="url(#clipPath14)"
     transform="matrix(1.3333333,0,0,-1.3333333,-72,541.70133)"
     id="g10"><g
       id="g16"><g
         clip-path="url(#clipPath22)"
         id="g18"><g
           transform="translate(364.2477,338.1043)"
           id="g24"><path
             id="path26"
             style="fill:#231f20;fill-opacity:1;fill-rule:nonzero;stroke:none"
             d="m 0,0 h -15.724 v 34.351 c 0,1.039 -0.817,1.884 -1.831,1.884 H -40.33 c -1.022,0 -1.838,-0.845 -1.838,-1.884 V 0 h -6.334 v 56 c 0,1.038 -0.824,1.88 -1.838,1.88 h -22.763 c -1.022,0 -1.847,-0.842 -1.847,-1.88 V 0 h -150.151 v 56 c 0,1.038 -0.825,1.88 -1.83,1.88 h -22.775 c -1.014,0 -1.839,-0.842 -1.839,-1.88 V 0 h -6.333 v 34.351 c 0,1.039 -0.817,1.884 -1.835,1.884 h -22.779 c -1.014,0 -1.839,-0.845 -1.839,-1.884 V 0 h -15.716 c -1.022,0 -1.839,-0.841 -1.839,-1.884 v -10.354 c 0,-1.039 0.817,-1.884 1.839,-1.884 h 15.716 v -34.347 c 0,-1.043 0.825,-1.884 1.839,-1.884 h 22.779 c 1.018,0 1.835,0.841 1.835,1.884 v 34.347 h 6.333 v -55.993 c 0,-1.043 0.825,-1.883 1.839,-1.883 h 22.775 c 1.005,0 1.83,0.84 1.83,1.883 v 55.993 H -74.95 v -55.993 c 0,-1.043 0.825,-1.883 1.847,-1.883 h 22.763 c 1.014,0 1.838,0.84 1.838,1.883 v 55.993 h 6.334 v -34.347 c 0,-1.043 0.816,-1.884 1.838,-1.884 h 22.775 c 1.014,0 1.831,0.841 1.831,1.884 v 34.347 H 0 c 1.022,0 1.839,0.845 1.839,1.884 V -1.884 C 1.839,-0.841 1.022,0 0,0" /></g></g></g><g
       transform="translate(91.566,154.1703)"
       id="g28"><path
         id="path30"
         style="fill:#47c2c7;fill-opacity:1;fill-rule:nonzero;stroke:none"
         d="M 0,0 V 32.142 H 42.719 V 42.821 H -10.988 V -10.988 H 42.719 V 21.257 H 15.814 V 10.577 H 32.142 L 32.142,0 Z" /></g><g
       transform="translate(91.566,154.1703)"
       id="g32"><path
         id="path34"
         style="fill:none;stroke:#47c2c7;stroke-width:2.13899994;stroke-linecap:butt;stroke-linejoin:miter;stroke-miterlimit:4;stroke-dasharray:none;stroke-opacity:1"
         d="M 0,0 V 32.142 H 42.719 V 42.821 H -10.988 V -10.988 H 42.719 V 21.257 H 15.814 V 10.577 H 32.142 L 32.142,0 Z" /></g><g
       transform="translate(235.6619,187.7945)"
       id="g36"><path
         id="path38"
         style="fill:#47c2c7;fill-opacity:1;fill-rule:nonzero;stroke:none"
         d="M 0,0 H -12.104 V -33.068 H -36.782 V 0 h -12.103 v -44.091 h 31.728 l -12.809,-11.128 v -7.101 h 9.519 L 0,-44.091 Z" /></g><g
       transform="translate(235.6619,187.7945)"
       id="g40"><path
         id="path42"
         style="fill:none;stroke:#47c2c7;stroke-width:2.20799994;stroke-linecap:butt;stroke-linejoin:miter;stroke-miterlimit:4;stroke-dasharray:none;stroke-opacity:1"
         d="M 0,0 H -12.104 V -33.068 H -36.782 V 0 h -12.103 v -44.091 h 31.728 l -12.809,-11.128 v -7.101 h 9.519 L 0,-44.091 Z" /></g><g
       transform="translate(284.5331,186.43)"
       id="g44"><path
         id="path46"
         style="fill:#47c2c7;fill-opacity:1;fill-rule:nonzero;stroke:none"
         d="m 0,0 v -42.776 h 12.281 v 32.108 H 25.039 V -42.776 H 37.32 v 32.108 h 12.281 v -32.108 h 12.758 l 0,42.776 z" /></g><g
       transform="translate(284.5331,186.43)"
       id="g48"><path
         id="path50"
         style="fill:none;stroke:#47c2c7;stroke-width:2.13700008;stroke-linecap:butt;stroke-linejoin:miter;stroke-miterlimit:4;stroke-dasharray:none;stroke-opacity:1"
         d="m 0,0 v -42.776 h 12.281 v 32.108 H 25.039 V -42.776 H 37.32 v 32.108 h 12.281 v -32.108 h 12.758 l 0,42.776 z" /></g><g
       transform="translate(129.4781,248.0496)"
       id="g52"><path
         id="path54"
         style="fill:#47c2c7;fill-opacity:1;fill-rule:nonzero;stroke:none"
         d="M 0,0 V 9.774 H -49.154 V -39.098 H 0 v 9.775 H -39.098 V 0 Z M 10.807,-39.098 H 50.281 V 0.094 H 10.807 Z m 29.417,9.775 H 20.863 V -9.68 h 19.361 z m 49.53,42.387 V 0.094 H 60.336 V -39.098 H 99.81 V 13.064 Z M 70.017,-9.68 H 89.754 V -29.323 H 70.017 Z M 109.49,4.981 h 9.68 v 7.613 h -9.68 z m 0,-44.079 h 9.68 v 38.534 h -9.68 z m 19.736,39.192 v -39.192 h 9.681 V -9.68 h 19.737 v -29.418 h 9.68 V 0.094 Z m 88.252,0 H 178.38 v -39.192 h 29.417 v -6.297 H 178.38 v -9.774 h 39.098 z M 188.061,-9.68 h 19.737 v -19.643 h -19.737 z" /></g></g></svg>